<?xml version="1.0" encoding="UTF-8"?>
<svg width="76px" height="76px" viewBox="0 0 76 76" version="1.1" xmlns="http://www.w3.org/2000/svg" xmlns:xlink="http://www.w3.org/1999/xlink">
    <!-- Generator: Sketch 52.2 (67145) - http://www.bohemiancoding.com/sketch -->
    <title>Group 2</title>
    <desc>Created with Sketch.</desc>
    <g id="Page-1" stroke="none" stroke-width="1" fill="none" fill-rule="evenodd">
        <g id="Group-2" fill-rule="nonzero" stroke="#003082" stroke-width="4">
            <path d="M2,14.3455249 L2,66.3772118 L38,73.9561592 L74,66.3772118 L74,14.3455249 L38.4740796,20.0310019 C38.1600247,20.0812624 37.8399753,20.0812624 37.5259204,20.0310019 L2,14.3455249 Z" id="Rectangle"></path>
            <path d="M8,8.8993406 L8,60.4578071 L38,68.3441791 L68,60.4578071 L68,8.8993406 L39.0654796,19.892408 C38.3790945,20.1531857 37.6209055,20.1531857 36.9345204,19.892408 L8,8.8993406 Z" id="Rectangle" fill="#FFFFFF"></path>
            <path d="M40,18.3061765 C40,39.1052284 40,39.9593349 40,64.0170696 C46.895454,55.0291335 52.6522603,50.6001186 57.4184608,51.2577128 C57.4184608,43.6494541 57.4184608,42.3876209 57.4184608,30.1960572 C57.4184608,13.3973096 57.4184608,12.8502915 57.4184608,3.18147664 C54.3915542,1.19591901 50.8448056,1.75157095 47.3761629,4.60629333 C43.6101065,7.70578968 40.729407,12.9764521 40,18.3061765 Z" id="Rectangle" fill="#FFFFFF"></path>
        </g>
    </g>
</svg>